<svg height="73" viewBox="0 0 73.000002 73" width="73" xmlns="http://www.w3.org/2000/svg"><g fill="#494c50" transform="translate(2.45)"><path d="m33.8 73h-27l27-34 27 34z"/><path d="m20.4 73h-20.4l20.4-25.7 20.4 25.7z"/><path d="m50.9 73h-17.2l17.2-21.7 17.2 21.7z"/></g><g fill="#155fd4" transform="translate(2.55)"><path d="m16.5 46.1c-1 1-2.6.9-3.4-.1-1.9-2.1-3.4-4.5-4.6-7.2-1.5-3.4-2.3-7.1-2.3-11.1s.7-7.4 2.2-10.8 3.4-6.3 5.9-8.8 5.4-4.5 8.8-5.9c3.4-1.5 7-2.2 10.9-2.2s7.4.7 10.8 2.2 6.3 3.4 8.8 5.9 4.5 5.4 5.9 8.8 2.2 7 2.2 10.8-.8 7.7-2.3 11.1c-1.2 2.6-2.7 5-4.6 7.2-.9 1-2.5 1-3.5.1-.9-.9-.9-2.3-.1-3.3 1.5-1.7 2.8-3.7 3.7-5.8 1.3-2.8 1.9-5.9 1.9-9.2 0-6.4-2.2-11.8-6.7-16.3-4.4-4.5-9.8-6.7-16.2-6.7s-11.8 2.2-16.2 6.7-6.7 9.9-6.7 16.3c0 3.3.6 6.4 1.9 9.2 1 2.2 2.2 4.1 3.7 5.8.8.9.8 2.4-.1 3.3zm7.7-7.7c-1 1-2.7.9-3.6-.2-.8-1.1-1.5-2.2-2.1-3.5-1-2.1-1.4-4.4-1.4-6.9 0-4.7 1.6-8.7 4.9-12s7.3-4.9 12-4.9 8.7 1.6 12 4.9 4.9 7.3 4.9 12c0 2.5-.5 4.8-1.5 6.9-.6 1.3-1.3 2.5-2.1 3.5-.9 1.1-2.6 1.2-3.6.2-.9-.9-.9-2.2-.2-3.2.6-.7 1.1-1.5 1.5-2.4.7-1.5 1.1-3.2 1.1-5 0-3.4-1.2-6.3-3.5-8.6-2.3-2.4-5.2-3.5-8.6-3.5s-6.2 1.2-8.6 3.5-3.5 5.2-3.5 8.6c0 1.8.4 3.5 1.1 5.1.4.9.9 1.7 1.5 2.4.6.9.6 2.3-.3 3.1z"/><circle cx="33.900002" cy="27.6" r="5.9"/></g></svg>