<svg height="32" viewBox="0 0 48 32" width="48" xmlns="http://www.w3.org/2000/svg"><path d="m40 28c2.2 0 3.98-1.8 3.98-4l.02-20c0-2.2-1.8-4-4-4h-32c-2.2 0-4 1.8-4 4v20c0 2.2 1.8 4 4 4h-6c-1.1 0-2 .9-2 2s.9 2 2 2h44c1.1 0 2-.9 2-2s-.9-2-2-2z"/><rect fill="#fff" height="20" rx="2" width="32" x="8" y="4"/><path d="m18.09 22.03c.95.11 2.02.73 2.91.84.9.11 1.18-.61 1.18-.61s1.01-.23 2.07-.25c1.06-.03 2.07.22 2.07.22s.2.45.56.64c.36.2 1.15.23 1.65-.3s1.85-1.2 2.6-1.62c.76-.42.62-1.06.14-1.26s-.87-.5-.84-1.09-.42-.98-.42-.98.39-1.29.03-2.35-1.57-2.77-2.49-4.05c-.92-1.29-.14-2.77-.98-4.67s-3.02-1.79-4.2-.98-.81 2.82-.76 3.78c.06.95.03 1.63-.08 1.87-.11.25-.87 1.15-1.37 1.9-.5.76-.87 2.32-1.23 2.97-.36.64-.11 1.23-.11 1.23s-.25.09-.45.51-.59.61-1.29.75-.7.59-.53 1.1c.17.5 0 .78-.2 1.43-.2.64.78.84 1.73.95z"/><g fill="#fff"><path d="m25.59 8.41c0 .41-.19.77-.48.95-.07-.03-.14-.07-.23-.1.18-.09.3-.3.3-.56 0-.33-.21-.6-.46-.6s-.45.27-.45.6c0 .12.03.24.07.34-.15-.06-.28-.11-.39-.16-.06-.14-.09-.3-.09-.47 0-.59.39-1.07.87-1.07s.86.48.86 1.07z"/><path d="m23.19 8.52c0 .1-.01.19-.03.29-.1.03-.19.08-.28.16-.04.03-.09.07-.12.11.06-.12.08-.28.05-.45-.05-.3-.25-.52-.45-.49s-.32.31-.27.61c.05.31.25.53.45.5.01-.01.02-.01.04-.01-.1.09-.19.17-.29.24-.27-.13-.47-.51-.47-.96 0-.56.3-1.01.68-1.01s.69.45.69 1.01z"/><path d="m25.14 9.98c-.03.15-.15.15-.48.35-.32.2-1.02.63-1.25.66s-.35-.09-.59-.25-.69-.52-.58-.72c0 0 .35-.27.51-.41.15-.14.55-.48.79-.43.23.04.88.32 1.12.41.24.08.51.23.48.39z"/><path d="m31.01 20.39c-.27.24-1.72.82-2.16 1.28-.43.46-1 .83-1.34.72-.35-.11-.66-.59-.51-1.28.16-.7.29-1.46.27-1.9-.02-.43-.11-1.02 0-1.1.11-.09.28-.05.28-.05s-.09.83.41 1.04c.5.22 1.22-.08 1.44-.3.21-.22.37-.54.37-.54s.22.11.19.45c-.02.35.15.85.48 1.03.33.17.83.41.57.65z"/><path d="m21.76 21.65c-.08.4-.56.69-.56.69-.42.13-1.6-.38-2.14-.6-.54-.23-1.9-.29-2.08-.49-.18-.21.09-.65.16-1.08.06-.42-.14-.69-.07-.98s.94-.29 1.27-.49c.34-.2.4-.79.67-.94.27-.16.76.4.97.72.19.3.96 1.65 1.27 1.98.31.34.6.79.51 1.19z"/><path d="m27.44 17.53s-.64-.17-.73.22c-.08.39-.08 1.82-.08 1.82s-.87 1.2-2.21 1.4c-1.34.19-2.02.05-2.02.05l-.75-.86s.59-.09.5-.68c-.08-.58-1.79-1.39-2.1-2.12-.3-.73-.05-1.96.34-2.58.39-.61.64-1.96 1.03-2.4.4-.45.7-1.4.56-1.82 0 0 .84 1.01 1.43.84s1.9-1.15 2.1-.98c.19.17 1.87 3.86 2.04 5.04.17 1.17-.11 2.07-.11 2.07z"/></g></svg>