<?xml version="1.0" encoding="UTF-8" standalone="no"?>
<svg
   height="32"
   viewBox="0 0 48 32"
   width="48"
   version="1.1"
   id="svg1405"
   sodipodi:docname="desktop-macos.svg"
   xmlns:inkscape="http://www.inkscape.org/namespaces/inkscape"
   xmlns:sodipodi="http://sodipodi.sourceforge.net/DTD/sodipodi-0.dtd"
   xmlns="http://www.w3.org/2000/svg"
   xmlns:svg="http://www.w3.org/2000/svg">
  <defs
     id="defs1409" />
  <sodipodi:namedview
     id="namedview1407"
     pagecolor="#ffffff"
     bordercolor="#000000"
     borderopacity="0.25"
     inkscape:showpageshadow="2"
     inkscape:pageopacity="0.0"
     inkscape:pagecheckerboard="0"
     inkscape:deskcolor="#d1d1d1"
     showgrid="false" />
  <path
     d="m 7.93,4 h 32 v 20 h -32 z"
     fill="#ffffff"
     id="path1399" />
  <path
     d="m 40,28 c 2.2,0 3.98,-1.8 3.98,-4 L 44,4 C 44,1.8 42.2,0 40,0 H 8 C 5.8,0 4,1.8 4,4 v 20 c 0,2.2 1.8,4 4,4 H 2 c -1.1,0 -2,0.9 -2,2 0,1.1 0.9,2 2,2 h 44 c 1.1,0 2,-0.9 2,-2 0,-1.1 -0.9,-2 -2,-2 z M 10,4 h 28 c 1.1,0 2,0.9 2,2 v 16 c 0,1.1 -0.9,2 -2,2 H 10 C 8.9,24 8,23.1 8,22 V 6 C 8,4.9 8.9,4 10,4 Z"
     id="path1401" />
</svg>
