<svg height="48" viewBox="0 0 15.272728 24" width="30.545456" xmlns="http://www.w3.org/2000/svg"><path d="m12 0h-8.7272726c-1.8109091 0-3.27272725 1.4618182-3.27272725 3.2727273v17.4545457c0 1.810909 1.46181815 3.272727 3.27272725 3.272727h8.7272726c1.810909 0 3.272727-1.461818 3.272727-3.272727v-17.4545457c0-1.8109091-1.461818-3.2727273-3.272727-3.2727273zm-2.7272726 21.818182h-3.272727c-.305455 0-.545455-.24-.545455-.545455 0-.305454.24-.545454.545455-.545454h3.272727c.305455 0 .545455.24.545455.545454 0 .305455-.24.545455-.545455.545455zm3.8181816-3.272727h-10.9090907v-15.2727277h10.9090907z" stroke-width="1.09091"/><g stroke-width=".5"><path d="m2.1818183 3.2727273v15.2727277h10.9090907v-15.2727277z" fill="#fff"/><path d="m11.066363 9.479092c-.05.04-.974999.559999-.974999 1.714999 0 1.335 1.174999 1.81 1.21 1.82-.005.03-.185001.645-.62 1.275-.385.555-.7899996 1.11-1.3999996 1.11s-.77-.355-1.475-.355-.935.365-1.495.365-.950001-.515-1.4000006-1.145c-.52-.74-.94-1.89-.94-2.98 0-1.75 1.1399996-2.6799995 2.2550006-2.6799995.595 0 1.09.39 1.465.39s.91-.415 1.585-.415c.255 0 1.1799996.025 1.7849986.8950005zm-2.1049996-1.6350005c.28-.3300004.48-.7950004.48-1.2550004 0-.065-.005-.13-.015-.18-.455.015-.994999.305-1.324999.68-.255001.29-.495.7500004-.495 1.2200004 0 .07.01.14.015.165.03.005.075.01.12.01.41 0 .925-.275 1.219999-.64z"/></g></svg>