<svg height="48" viewBox="0 0 15.272728 24" width="30.545456" xmlns="http://www.w3.org/2000/svg"><path d="m12.000001 0h-8.7272738c-1.8109091 0-3.27272728 1.4618182-3.27272728 3.2727273v17.4545457c0 1.810909 1.46181818 3.272727 3.27272728 3.272727h8.7272738c1.810909 0 3.272727-1.461818 3.272727-3.272727v-17.4545457c0-1.8109091-1.461818-3.2727273-3.272727-3.2727273zm-2.7272733 21.818182h-3.2727275c-.305455 0-.545455-.24-.545455-.545455 0-.305454.24-.545454.545455-.545454h3.2727275c.305455 0 .545455.24.545455.545454 0 .305455-.24.545455-.545455.545455zm3.8181823-3.272727h-10.9090919v-15.2727277h10.9090919z" stroke-width="1.09091"/><path d="m2.1818181 3.2727273v15.2727277h10.9090919v-15.2727277z" fill="#fff" stroke-width=".5"/><path d="m9.8309947 11.146533.7902683-1.3691281c.07047-.1208053.0302-.271812-.0906-.3422818-.120805-.07047-.271812-.030201-.342282.090604l-.8053693 1.3993289c-.538591-.22651-1.127517-.352349-1.746644-.352349-.6191279 0-1.2080541.125839-1.7416111.352349l-.8053732-1.3993289c-.0704698-.1208054-.22651-.1610738-.3473154-.090604-.1208054.0654362-.1610738.2214765-.090604.3422818l.7902684 1.3691281c-1.2533557.694631-2.1392617 1.963087-2.3053691 3.45302h9.0000007c-.166108-1.489933-1.052014-2.758389-2.3053693-3.45302zm-4.2080542 2.446309c-.2768456 0-.5033557-.22651-.5033557-.503356s.2265101-.503356.5033557-.503356.5033557.22651.5033557.503356-.2265101.503356-.5033557.503356zm4.0268452 0c-.276845 0-.503355-.22651-.503355-.503356s.22651-.503356.503355-.503356c.276846 0 .5033563.22651.5033563.503356s-.2265103.503356-.5033563.503356z" stroke-width=".503356"/></svg>