<svg height="256mm" viewBox="0 0 256 256" width="256mm" xmlns="http://www.w3.org/2000/svg"><g transform="translate(-35.927845 -99.854625)"><path d="m282.32151 273.94044h-237.035631a127.32057 127.32057 0 0 0 118.517111 80.80062 127.32057 127.32057 0 0 0 118.51852-80.80062z" fill="#244733"/><path d="m163.92714 100.96819a127.32057 127.32057 0 0 0 -127.31988 127.32129 127.32057 127.32057 0 0 0 8.802765 46.51926h237.035635a127.32057 127.32057 0 0 0 8.80277-46.51926 127.32057 127.32057 0 0 0 -127.32129-127.32129z" fill="#155fd4"/><path d="m75.867751 274.78513 27.439389-27.33397 11.957 3.29366 13.66067-21.202 11.48001 9.74009 24.04582-38.18347 30.79211 38.49245 29.89249-12.72484 27.50747 47.94169z" fill="#494c50"/><path d="m163.91705 166.10676c-6.16285 0-11.20518 5.04232-11.20518 11.20517 0 6.16284 5.04233 11.20516 11.20518 11.20516 6.16284 0 11.20517-5.04232 11.20517-11.20516 0-6.16285-5.04233-11.20517-11.20517-11.20517zm33.61553 11.20517c0-19.94521-17.42406-35.85655-37.81747-33.33539-14.67877 1.79282-26.78036 13.50223-29.02139 28.12498-1.84886 12.04555 2.74526 23.02664 10.81298 30.25397 2.68924 2.40911 6.89119 1.84884 8.74004-1.28858l.056-.056c1.34463-2.3531.78437-5.2104-1.23256-7.05927-5.77066-5.21038-8.90811-13.27812-6.83516-22.07418 1.84886-7.95567 8.29184-14.39862 16.2475-16.30352 14.67877-3.52961 27.84485 7.56348 27.84485 21.73803 0 6.61107-2.91334 12.49378-7.45145 16.58366-2.01692 1.79283-2.6332 4.70617-1.28859 7.05925l.0561.056c1.7368 2.96936 5.77067 3.86578 8.40387 1.5687 7.00324-6.16282 11.48531-15.183 11.48531-25.26764zm-40.17055-55.63367c-25.88395 2.91332-46.78159 24.25916-49.19071 50.19916-1.9609 20.72955 7.39542 39.33017 22.5224 50.47929 2.68924 1.96092 6.49899 1.12053 8.17977-1.73678 1.40064-2.40911.78436-5.54659-1.45667-7.22733-12.7739-9.46838-20.44944-25.4918-17.70417-43.13994 3.02539-19.60904 19.38494-35.24024 39.10605-37.42525 27.00445-3.08143 49.91904 18.04031 49.91904 44.48452 0 14.84685-7.22733 27.90087-18.32046 36.08067-2.24103 1.68074-2.85731 4.76218-1.45667 7.22733 1.68077 2.91335 5.49053 3.6977 8.17978 1.73678 13.8384-10.19671 22.80251-26.55625 22.80251-45.04478 0-33.11126-28.74125-59.49945-62.58087-55.63367z" fill="#fff" fill-opacity=".481481" stroke-width=".529167"/><g fill="#d4e1f7"><path d="m151.24422 222.17924-3.24466 5.08751 10.84778-1.15841 5.57123 3.55939 7.4541-4.78312 7.10159 4.7344 6.13571-2.81958-20.75261-26.53881z"/><path d="m200.90852 237.29668 11.38437 2.52743 3.71613-2.25559 5.93696 3.92512 5.4426-1.67445 4.35865 3.27149 3.20991.47196-9.41512-17.21279z"/><path d="m119.3279 243.9219 7.36139-3.87278 3.35039.67022 2.09684-1.37792 3.97971 1.79996 3.99291-2.39725-2.6417-2.27099-8.13507-7.52107z"/></g></g></svg>