<svg height="19.200001" viewBox="0 0 19.2 19.200001" width="19.200001" xmlns="http://www.w3.org/2000/svg"><path d="m16.740001 10.54c.04-.3.06-.6099999.06-.9399996 0-.32-.02-.64-.07-.94l2.03-1.58c.18-.14.23-.41.12-.61l-1.92-3.32c-.12-.22-.37-.29-.59-.22l-2.39.96c-.5-.38-1.03-.7-1.62-.94l-.36-2.54000002c-.04-.24-.24-.41-.48-.41h-3.840001c-.24 0-.43.17-.47.41l-.36 2.54000002c-.59.24-1.13.57-1.62.94l-2.39-.96c-.22-.08-.47 0-.59.22l-1.90999995 3.32c-.12.21-.08.47.12.61l2.02999995 1.58c-.05.3-.09.63-.09.94 0 .3099997.02.6399996.07.9399996l-2.02999995 1.58c-.18.14-.23.41-.12.61l1.91999995 3.32c.12.22.37.29.59.22l2.39-.96c.5.38 1.03.7 1.62.94l.36 2.54c.05.24.24.41.48.41h3.840001c.24 0 .44-.17.47-.41l.36-2.54c.59-.24 1.13-.56 1.62-.94l2.39.96c.22.08.47 0 .59-.22l1.92-3.32c.12-.22.07-.47-.12-.61zm-7.140001 2.66c-1.98 0-3.6-1.62-3.6-3.5999996 0-1.98 1.62-3.6 3.6-3.6 1.980001 0 3.600001 1.62 3.600001 3.6 0 1.9799996-1.62 3.5999996-3.600001 3.5999996z"/></svg>